<?xml version="1.0" standalone="no"?>
<!DOCTYPE svg PUBLIC "-//W3C//DTD SVG 20010904//EN"
 "http://www.w3.org/TR/2001/REC-SVG-20010904/DTD/svg10.dtd">
<svg version="1.0" xmlns="http://www.w3.org/2000/svg"
 width="1050.000000pt" height="600.000000pt" viewBox="0 0 1050.000000 600.000000"
 preserveAspectRatio="xMidYMid meet">
<metadata>
Created by potrace 1.16, written by Peter Selinger 2001-2019
</metadata>
<g transform="translate(0.000000,600.000000) scale(0.100000,-0.100000)"
fill="#000000" stroke="none">
<path d="M0 3000 l0 -3000 38 0 37 0 194 342 194 341 -41 395 -41 395 181 441
c250 608 218 546 297 586 36 19 131 70 211 114 80 43 163 88 185 99 22 11 123
65 224 119 102 55 228 123 280 151 53 28 137 72 186 99 88 48 91 49 122 34 55
-26 1218 -648 1226 -656 5 -4 -114 -281 -264 -616 l-272 -609 -33 -249 c-22
-176 -36 -253 -46 -260 -8 -6 -194 -171 -412 -366 l-397 -355 3247 -3 c2167
-1 3250 1 3254 8 3 6 21 62 40 125 18 63 35 113 37 111 3 -2 -11 -57 -31 -122
-19 -65 -34 -119 -32 -121 2 -2 91 180 199 404 l196 408 -42 7 c-23 3 -58 7
-77 7 l-35 1 -84 -285 c-46 -157 -86 -283 -88 -281 -2 2 34 134 81 292 l86
288 0 181 0 180 289 336 c184 214 298 338 312 342 13 3 53 8 89 11 l65 5 -73
-11 c-40 -6 -71 -15 -70 -19 7 -20 453 -359 466 -354 16 6 188 125 477 330
110 78 214 150 230 160 60 37 7 -6 -101 -82 -61 -43 -220 -154 -353 -248 -235
-165 -241 -170 -209 -176 l33 -6 -35 -4 c-35 -4 -35 -4 -41 -64 l-5 -60 -5 59
-4 59 -139 -178 c-77 -98 -139 -183 -139 -189 0 -20 343 -527 353 -521 4 3 10
-1 12 -9 2 -10 87 33 286 144 156 86 284 161 284 165 0 4 -130 124 -289 267
-158 143 -301 273 -318 291 -59 60 69 -51 340 -296 170 -154 273 -240 277
-233 4 6 8 -7 8 -29 0 -22 -4 -35 -8 -29 -5 8 -99 -39 -289 -144 -156 -86
-283 -160 -283 -165 0 -4 51 -61 113 -125 62 -64 146 -154 186 -200 53 -58 77
-79 83 -70 6 10 8 9 8 -4 0 -9 -17 -30 -37 -45 -21 -15 -42 -32 -48 -36 -5 -4
-32 -23 -60 -42 l-50 -35 263 0 262 0 0 1170 c0 706 -4 1171 -10 1175 -5 3
-11 -18 -13 -47 l-3 -53 -2 60 -2 61 -175 73 c-97 41 -174 75 -172 78 2 2 73
-26 158 -62 85 -36 157 -64 162 -62 4 1 -61 93 -145 204 l-153 201 -97 -96
c-54 -53 -98 -99 -98 -102 0 -4 21 -16 48 -28 26 -12 38 -19 27 -16 -72 22
-91 46 229 -295 l201 -214 6 84 5 84 4 -75 c2 -41 3 -79 2 -85 -1 -16 -95
-236 -98 -232 -2 2 14 47 35 100 46 111 46 111 -62 97 -39 -5 -81 -9 -92 -9
-39 1 39 19 114 27 l75 7 -248 265 c-136 146 -251 266 -256 268 -4 2 -11 -16
-16 -40 -4 -24 -9 -38 -11 -31 -2 6 0 28 5 47 10 34 9 35 -21 39 l-32 4 33 1
c17 1 32 7 32 12 0 6 3 9 8 8 15 -4 194 183 188 198 -14 36 -249 332 -261 328
-7 -3 -21 -23 -30 -45 -10 -21 -20 -37 -22 -35 -2 2 7 26 21 54 l25 50 -27 11
c-101 40 -496 180 -500 177 -2 -3 53 -176 123 -386 70 -210 130 -378 134 -373
4 4 38 74 76 155 38 82 70 146 72 145 2 -2 -30 -75 -71 -163 -46 -98 -71 -161
-64 -165 7 -4 7 -8 0 -10 -6 -2 2 -35 19 -78 17 -40 28 -75 26 -77 -2 -2 -16
29 -32 68 -15 40 -33 78 -39 84 -6 6 -53 22 -104 34 -51 12 -91 24 -89 27 3 2
42 -5 87 -17 45 -12 84 -20 85 -18 2 2 -75 83 -171 180 l-174 178 -175 -87
c-96 -48 -175 -91 -175 -95 0 -5 10 -8 23 -9 18 0 19 -2 5 -7 -14 -6 91 -91
434 -354 249 -191 454 -345 456 -344 1 2 -7 27 -18 56 -11 29 -19 54 -17 57 3
2 15 -24 27 -58 19 -49 25 -58 31 -43 6 16 8 14 8 -9 1 -20 -3 -28 -14 -25
-16 3 -965 729 -964 738 0 3 84 46 186 95 121 59 188 97 194 110 7 18 8 19 8
1 1 -18 325 -366 341 -366 9 0 -227 719 -240 733 -4 5 -16 -26 -26 -69 -10
-44 -20 -72 -21 -64 -2 8 7 52 19 97 l23 82 204 155 c113 86 213 156 223 156
11 0 16 -4 13 -10 -5 -8 435 -622 501 -699 l22 -25 111 222 c96 192 111 228
111 271 0 48 -1 49 -37 60 l-38 10 38 -5 37 -5 0 1246 0 1245 -5250 0 -5250 0
0 -3000z m4995 84 l0 -89 -73 -3 c-88 -4 -102 5 -102 62 0 61 10 69 84 74 62
4 66 6 66 29 0 15 5 23 13 21 8 -3 12 -31 12 -94z m-264 36 c12 -7 19 -21 19
-40 l0 -30 -76 0 c-66 0 -75 -2 -72 -17 2 -14 15 -19 56 -21 31 -2 60 2 68 9
19 16 30 3 14 -16 -10 -12 -29 -15 -84 -13 l-71 3 -3 55 c-3 43 1 57 14 67 21
16 108 17 135 3z m483 0 c24 -9 26 -14 26 -69 l0 -59 -82 1 -83 2 -3 29 c-5
38 10 46 85 46 51 0 61 3 57 15 -7 17 -114 22 -114 5 0 -5 -7 -10 -15 -10 -25
0 -14 32 15 43 25 9 87 8 114 -3z m977 0 c15 -9 19 -22 19 -69 l0 -58 -73 -2
c-86 -2 -108 12 -89 54 11 23 17 25 77 25 51 0 65 3 65 15 0 8 -1 15 -2 16 -2
0 -24 3 -49 5 -34 4 -51 1 -62 -10 -20 -20 -27 -20 -27 -1 0 30 99 47 141 25z
m534 -10 c10 -8 15 -31 15 -65 l0 -53 -82 1 -83 2 -3 29 c-5 37 10 46 81 46
42 0 57 4 57 14 0 29 -72 36 -108 10 -25 -18 -38 -13 -29 10 10 26 123 30 152
6z m853 -2 c7 -7 12 -35 12 -64 l0 -52 -82 1 -83 2 -3 29 c-5 37 10 46 81 46
42 0 57 4 57 14 0 29 -82 36 -112 9 -20 -18 -34 -12 -25 12 8 19 136 22 155 3z
m132 -593 c0 -13 -207 -15 -1800 -15 -1593 0 -1800 2 -1800 15 0 13 207 15
1800 15 1593 0 1800 -2 1800 -15z m-3218 -352 c13 -11 18 -30 18 -66 0 -58
-20 -87 -58 -87 -41 0 -62 27 -62 78 0 75 57 116 102 75z m825 -5 c19 -18 23
-32 23 -85 0 -49 -3 -63 -15 -63 -8 0 -15 5 -15 12 0 9 -3 9 -12 0 -19 -19
-42 -14 -67 12 -19 20 -21 28 -12 45 14 25 42 41 71 41 28 0 21 24 -9 28 -12
2 -29 -2 -37 -9 -22 -18 -30 -2 -9 21 24 26 53 25 82 -2z m1251 -22 c1 -48
-16 -72 -56 -78 -35 -5 -27 -23 12 -26 19 -2 40 -10 47 -18 18 -22 -15 -54
-56 -54 -38 0 -75 34 -57 52 8 8 9 15 1 25 -8 9 -8 17 0 27 8 10 9 16 1 21
-17 11 -11 47 12 72 15 16 33 23 58 23 37 0 37 0 38 -44z"/>
<path d="M9527 3528 c-134 -102 -194 -154 -185 -158 22 -13 488 -180 499 -180
7 0 9 14 6 38 -6 36 -6 36 8 -7 8 -25 20 -48 27 -52 7 -5 13 -12 13 -17 0 -15
239 -331 250 -332 10 0 75 64 105 103 11 15 10 20 -6 33 -10 9 -13 13 -6 9 6
-3 12 -4 12 -1 0 3 -113 160 -251 348 -176 240 -250 334 -246 312 15 -81 16
-86 1 -39 -8 28 -18 60 -22 72 -6 20 -23 10 -205 -129z"/>
<path d="M10392 3165 c-56 -113 -102 -209 -102 -214 0 -5 38 -24 85 -42 47
-17 84 -33 82 -35 -2 -2 -40 10 -85 26 -56 20 -82 26 -82 17 0 -9 -2 -9 -8 0
-6 9 -27 -6 -70 -50 l-62 -62 147 -193 c81 -107 149 -188 152 -181 2 6 10 -2
17 -20 7 -17 18 -31 24 -31 7 0 10 156 10 495 0 272 -1 495 -3 495 -1 0 -48
-92 -105 -205z"/>
<path d="M1885 3034 c-77 -42 -167 -90 -200 -108 -33 -19 -105 -57 -160 -86
-55 -29 -143 -76 -195 -105 -52 -28 -186 -100 -297 -159 -112 -59 -205 -111
-208 -116 -3 -4 37 -26 88 -48 50 -22 302 -135 560 -250 434 -195 468 -208
472 -188 5 28 86 1129 82 1132 -1 2 -65 -31 -142 -72z"/>
<path d="M2046 3098 c-4 -11 -86 -1101 -86 -1135 0 -6 48 7 118 34 64 25 357
137 651 249 294 112 536 206 538 208 2 2 -252 139 -564 306 -312 166 -587 314
-611 327 -31 18 -43 21 -46 11z"/>
<path d="M780 2398 c-7 -18 -23 -55 -35 -83 -59 -131 -337 -816 -333 -820 3
-4 817 312 826 320 2 2 -29 49 -70 105 -40 56 -89 123 -108 150 -19 27 -77
109 -129 182 -129 183 -125 177 -132 178 -4 0 -12 -15 -19 -32z"/>
<path d="M830 2424 c0 -3 44 -66 98 -140 130 -181 146 -203 242 -340 46 -66
84 -120 85 -122 2 -3 432 75 604 109 29 6 49 15 45 19 -5 5 -144 68 -309 140
-165 73 -316 140 -335 150 -19 10 -84 39 -145 65 -60 27 -147 65 -193 87 -85
39 -92 42 -92 32z"/>
<path d="M3000 2334 c-135 -52 -418 -160 -630 -240 -212 -81 -389 -150 -393
-154 -5 -4 117 -149 270 -323 208 -235 281 -312 290 -303 13 13 713 1085 720
1104 3 6 1 12 -3 12 -5 -1 -119 -43 -254 -96z"/>
<path d="M3168 2248 c-362 -546 -619 -951 -607 -958 14 -9 180 -52 183 -48 2
2 365 815 462 1036 13 28 22 52 20 52 -1 0 -28 -37 -58 -82z"/>
<path d="M1607 1870 c-170 -32 -311 -60 -313 -62 -4 -5 516 -220 531 -219 8 0
32 70 100 294 10 35 11 47 2 46 -7 0 -151 -27 -320 -59z"/>
<path d="M1915 1803 c-20 -65 -44 -142 -52 -170 -9 -29 -15 -55 -12 -57 2 -2
144 -61 314 -131 171 -70 314 -129 319 -132 5 -3 7 -1 5 4 -5 12 -515 589
-529 598 -5 3 -25 -48 -45 -112z"/>
<path d="M8920 1539 c-151 -176 -276 -325 -278 -330 -2 -5 11 -10 30 -10 l33
-2 -36 -6 -36 -6 76 -175 c42 -96 81 -175 87 -175 16 0 564 269 564 277 0 4
-17 9 -37 11 -25 3 -22 4 10 2 35 -1 47 2 47 12 0 8 -18 85 -40 173 -22 88
-40 165 -39 172 0 7 22 -70 48 -171 l47 -184 135 174 c74 96 138 179 142 185
4 7 -84 82 -218 188 -123 97 -226 176 -229 176 -2 0 -7 -8 -9 -17 -4 -14 -5
-12 -6 5 0 12 -4 22 -8 22 -5 0 -132 -145 -283 -321z"/>
<path d="M825 1636 c-225 -89 -410 -166 -410 -173 0 -13 757 -904 763 -898 2
2 17 246 33 542 15 296 30 573 33 616 3 42 2 77 -2 76 -4 0 -191 -73 -417
-163z"/>
<path d="M1280 1783 c1 -5 85 -179 188 -387 l187 -380 86 275 c56 179 82 276
75 281 -13 8 -525 218 -531 218 -3 0 -5 -3 -5 -7z"/>
<path d="M1261 1765 c-4 -42 -61 -1139 -61 -1169 l0 -39 218 214 c119 118 218
221 219 229 2 8 -82 186 -186 395 -104 209 -190 376 -190 370z"/>
<path d="M1835 1548 c-30 -91 -163 -533 -161 -535 2 -2 188 58 414 134 226 76
408 141 404 145 -7 6 -638 268 -647 268 -3 0 -8 -6 -10 -12z"/>
<path d="M403 1400 c3 -25 20 -191 38 -368 18 -178 38 -330 44 -337 10 -12
647 -149 665 -143 6 2 -705 849 -745 886 -4 4 -5 -13 -2 -38z"/>
<path d="M2110 1139 c-449 -150 -414 -138 -407 -145 8 -8 960 -235 965 -230 2
3 -26 109 -63 238 -37 128 -70 241 -72 251 -3 9 -13 17 -22 16 -9 0 -189 -59
-401 -130z"/>
<path d="M2609 1040 c37 -126 69 -231 72 -234 3 -3 16 76 28 177 12 100 24
196 27 213 l6 31 -86 22 c-47 11 -92 21 -99 21 -11 0 2 -56 52 -230z"/>
<path d="M8630 1004 l0 -161 71 -7 c39 -4 72 -6 73 -4 2 2 -30 77 -71 168
l-73 165 0 -161z"/>
<path d="M9085 961 l-280 -138 55 -16 c88 -25 438 -117 448 -117 5 0 14 26 19
58 l11 57 -5 -62 -5 -62 38 -10 c184 -48 243 -65 240 -68 -2 -2 -64 12 -138
31 -74 20 -137 36 -140 36 -4 0 -12 -34 -19 -75 -6 -42 -14 -73 -16 -71 -3 3
0 37 7 76 7 39 10 73 8 75 -8 8 -488 132 -486 125 4 -9 426 -374 438 -378 4
-2 10 5 13 15 4 14 5 13 6 -4 0 -13 2 -23 4 -23 2 0 63 20 137 45 74 25 139
45 145 44 5 0 -53 -22 -130 -49 -128 -44 -138 -49 -115 -59 24 -10 23 -11 -7
-5 l-32 5 -4 -73 -3 -73 -2 73 c-1 39 -5 72 -8 72 -5 0 -706 -379 -713 -386
-2 -2 163 -4 367 -4 l371 0 4 32 4 33 1 -32 2 -33 331 0 331 0 66 49 c37 28
78 58 91 67 l25 18 -30 13 c-22 11 -23 13 -6 9 13 -2 22 -1 20 4 -3 8 -122
137 -310 335 l-56 59 -72 -23 c-39 -12 -74 -21 -76 -18 -2 2 23 12 56 22 33
10 60 21 60 25 0 4 -25 12 -56 19 -30 7 -53 15 -51 17 3 3 31 -2 63 -10 32 -8
59 -14 60 -13 3 4 -341 517 -347 517 -4 0 -14 -51 -24 -112 -10 -62 -20 -108
-22 -101 -2 6 3 51 11 100 18 99 19 123 9 123 -5 -1 -134 -63 -288 -139z"/>
<path d="M1670 968 c0 -7 23 -228 52 -490 l53 -478 33 0 c29 0 78 41 442 366
226 202 410 370 410 375 0 5 -6 9 -14 9 -8 0 -226 52 -486 115 -259 63 -476
115 -481 115 -5 0 -9 -6 -9 -12z"/>
<path d="M1420 751 l-225 -218 260 -264 c274 -279 313 -309 302 -232 -3 21
-26 231 -52 468 -26 237 -49 438 -53 447 -6 14 -54 -28 -232 -201z"/>
<path d="M8592 407 l-192 -402 59 -3 60 -3 363 197 c200 108 366 199 370 203
6 5 -441 401 -461 408 -3 2 -93 -178 -199 -400z"/>
<path d="M283 338 l-189 -333 28 -3 c21 -2 156 63 532 260 278 145 503 264
501 266 -4 4 -654 141 -671 142 -7 0 -97 -150 -201 -332z"/>
<path d="M885 366 c-159 -84 -382 -200 -495 -259 l-205 -107 755 0 754 0 -44
48 c-86 91 -465 472 -470 472 -3 -1 -135 -70 -295 -154z"/>
</g>
</svg>
