<?xml version="1.0" standalone="no"?>
<!DOCTYPE svg PUBLIC "-//W3C//DTD SVG 20010904//EN"
 "http://www.w3.org/TR/2001/REC-SVG-20010904/DTD/svg10.dtd">
<svg version="1.0" xmlns="http://www.w3.org/2000/svg"
 width="1080.000000pt" height="1080.000000pt" viewBox="0 0 1080.000000 1080.000000"
 preserveAspectRatio="xMidYMid meet">
<metadata>
Created by potrace 1.16, written by Peter Selinger 2001-2019
</metadata>
<g transform="translate(0.000000,1080.000000) scale(0.100000,-0.100000)"
fill="#000000" stroke="none">
<path d="M9040 9761 c0 -40 -1 -41 -34 -41 -45 0 -76 -37 -76 -91 0 -68 69
-107 103 -59 l14 21 6 -22 c3 -12 11 -19 19 -16 7 2 11 11 9 18 -2 8 -6 61
-10 118 -4 70 -10 106 -18 109 -9 2 -13 -9 -13 -37z"/>
<path d="M9223 9793 c-9 -3 -13 -37 -13 -118 l0 -114 35 -7 c50 -9 83 2 100
36 31 61 8 130 -44 130 -15 0 -32 -5 -39 -12 -9 -9 -12 0 -12 40 0 51 -3 55
-27 45z"/>
<path d="M8100 9665 c0 -108 1 -115 20 -115 18 0 20 7 20 55 l0 55 50 0 50 0
0 -55 c0 -48 2 -55 20 -55 19 0 20 7 20 115 0 108 -1 115 -20 115 -17 0 -20
-7 -20 -51 l0 -50 -47 3 -48 3 -3 48 c-3 39 -6 47 -23 47 -18 0 -19 -8 -19
-115z"/>
<path d="M8354 9712 c-19 -13 -34 -50 -34 -86 0 -72 75 -102 127 -50 22 22 25
32 20 70 -2 24 -10 51 -17 59 -13 16 -76 20 -96 7z"/>
<path d="M8791 9699 c-15 -16 -21 -36 -21 -66 0 -68 39 -95 108 -77 35 10 27
27 -9 20 -33 -6 -59 7 -59 29 0 7 15 16 34 19 42 8 58 27 54 63 -3 25 -7 28
-45 31 -32 2 -46 -2 -62 -19z"/>
<path d="M9400 9647 c0 -43 5 -78 12 -85 16 -16 49 -15 75 3 19 13 21 13 26
-5 3 -10 -2 -28 -10 -40 -12 -17 -21 -19 -50 -14 -28 5 -35 4 -31 -7 3 -9 21
-14 54 -14 64 0 72 18 66 143 -3 81 -6 92 -23 92 -15 0 -18 -9 -21 -61 -3 -65
-19 -88 -52 -76 -12 5 -16 20 -16 72 0 51 -3 65 -15 65 -12 0 -15 -15 -15 -73z"/>
<path d="M9020 9321 c0 -37 -2 -41 -25 -41 -14 0 -37 -11 -50 -25 -33 -32 -35
-105 -5 -135 24 -24 63 -26 80 -5 11 14 14 14 24 0 15 -21 50 -9 40 14 -4 9
-9 62 -12 119 -2 56 -8 102 -12 102 -5 0 -15 3 -24 6 -13 5 -16 -2 -16 -35z"/>
<path d="M8560 9202 c0 -47 5 -83 12 -90 17 -17 63 -15 78 3 18 22 33 -2 18
-28 -7 -14 -18 -18 -44 -15 -22 3 -35 -1 -39 -10 -9 -24 5 -32 54 -32 75 0 82
14 74 143 -6 104 -7 107 -30 107 -21 0 -23 -4 -23 -53 0 -55 -19 -95 -38 -83
-7 4 -12 34 -12 72 0 62 -1 64 -25 64 -25 0 -25 -1 -25 -78z"/>
<path d="M8775 9255 c-36 -35 -37 -108 -3 -137 32 -28 118 -22 118 8 0 10 -12
14 -39 14 -42 0 -64 17 -34 26 47 14 68 31 71 57 5 38 -14 57 -55 57 -23 0
-42 -8 -58 -25z"/>
<path d="M9138 9269 c-11 -6 -18 -22 -18 -40 0 -23 7 -34 35 -50 43 -26 45
-43 4 -37 -21 3 -33 0 -39 -13 -8 -13 -5 -18 13 -23 63 -17 107 3 107 50 0 18
-10 31 -35 45 -43 26 -45 43 -5 37 32 -5 51 19 28 34 -18 11 -69 9 -90 -3z"/>
<path d="M2153 8905 c-113 -25 -228 -106 -272 -194 -68 -132 -68 -319 -2 -449
91 -178 350 -257 593 -182 106 33 108 36 108 146 0 52 -3 94 -8 94 -4 0 -18
-7 -30 -16 -48 -34 -136 -56 -228 -57 -83 -1 -96 1 -149 28 -47 24 -63 40 -88
83 -25 45 -29 63 -29 125 0 113 47 188 139 223 32 12 67 15 145 12 103 -4 116
-7 231 -66 4 -2 7 41 7 96 l0 99 -57 26 c-106 47 -238 59 -360 32z"/>
<path d="M5305 8907 c-65 -17 -106 -39 -145 -79 -44 -43 -62 -90 -62 -159 0
-111 56 -174 222 -252 58 -27 115 -58 128 -70 28 -26 28 -68 1 -93 -31 -28
-181 -25 -264 5 -33 12 -68 24 -77 28 -16 5 -18 -3 -18 -86 0 -90 0 -91 29
-106 16 -8 71 -22 123 -31 242 -42 422 26 458 175 13 56 7 129 -15 172 -22 41
-83 89 -155 121 -157 72 -192 91 -199 111 -12 32 2 60 40 80 43 23 139 18 224
-12 33 -12 61 -21 63 -21 1 0 1 41 0 92 l-3 92 -60 19 c-77 24 -224 31 -290
14z"/>
<path d="M660 8485 l0 -415 105 0 105 0 0 415 0 415 -105 0 -105 0 0 -415z"/>
<path d="M1000 8485 l0 -415 105 0 105 0 2 243 3 242 150 -242 150 -243 102 0
103 0 0 415 0 415 -105 0 -105 0 -2 -241 -3 -240 -148 240 -149 241 -104 0
-104 0 0 -415z"/>
<path d="M2680 8485 l0 -415 105 0 105 0 0 130 0 130 60 0 60 0 65 -130 65
-130 111 0 110 0 -75 145 -75 145 29 15 c43 22 96 90 111 143 37 129 -1 264
-93 328 -68 46 -121 54 -363 54 l-215 0 0 -415z m440 209 c27 -26 36 -85 20
-124 -19 -46 -55 -60 -160 -60 l-90 0 0 106 0 106 105 -4 c89 -3 107 -6 125
-24z"/>
<path d="M3470 8485 l0 -415 295 0 295 0 0 90 0 90 -190 0 -190 0 0 75 0 75
140 0 140 0 0 85 0 85 -140 0 -140 0 0 75 0 75 190 0 190 0 0 90 0 90 -295 0
-295 0 0 -415z"/>
<path d="M4461 8878 c-5 -13 -79 -198 -165 -412 -86 -213 -156 -390 -156 -392
0 -2 48 -4 108 -4 l107 0 31 83 31 82 155 3 155 2 33 -85 33 -85 108 0 109 0
-19 48 c-10 26 -85 212 -166 415 l-147 367 -104 0 c-99 0 -105 -1 -113 -22z
m163 -337 c25 -69 46 -128 46 -133 0 -4 -43 -8 -95 -8 -73 0 -95 3 -95 14 0 7
18 62 40 122 22 60 43 115 45 123 3 8 7 12 10 10 2 -3 24 -60 49 -128z"/>
<path d="M5810 8485 l0 -415 295 0 295 0 0 90 0 90 -190 0 -190 0 0 75 0 74
138 3 137 3 3 83 3 82 -141 0 -140 0 0 75 0 75 190 0 190 0 0 90 0 90 -295 0
-295 0 0 -415z"/>
<path d="M8744 8110 c-113 -23 -214 -104 -264 -212 -30 -65 -34 -83 -34 -159
0 -80 3 -92 37 -162 95 -192 319 -267 510 -171 267 136 266 532 -3 669 -79 40
-161 51 -246 35z"/>
<path d="M3555 7457 c-65 -17 -106 -39 -145 -79 -44 -43 -63 -91 -63 -158 0
-110 57 -175 223 -253 58 -27 115 -58 128 -70 28 -26 28 -68 1 -93 -31 -28
-181 -25 -264 5 -33 12 -68 24 -77 28 -16 5 -18 -3 -18 -86 0 -90 0 -91 29
-106 16 -8 71 -22 123 -31 295 -52 489 62 463 272 -12 98 -71 155 -231 223
-120 51 -146 69 -146 104 0 37 17 55 66 68 50 14 128 5 204 -21 31 -11 58 -20
60 -20 1 0 1 41 0 92 l-3 92 -60 19 c-77 24 -224 31 -290 14z"/>
<path d="M643 7429 c3 -12 54 -199 114 -415 l108 -394 99 2 100 3 65 233 c36
128 68 227 72 220 4 -7 35 -113 70 -235 l62 -223 98 0 c94 0 99 1 104 23 3 12
54 198 113 412 l108 390 -105 3 c-68 2 -107 -1 -111 -8 -4 -6 -35 -115 -70
-241 -35 -126 -65 -227 -67 -225 -4 4 -123 460 -123 471 0 3 -35 5 -77 3 l-78
-3 -65 -237 c-35 -130 -68 -232 -71 -225 -4 7 -35 114 -70 240 l-64 227 -109
0 c-106 0 -108 -1 -103 -21z"/>
<path d="M1860 7035 l0 -415 295 0 295 0 0 90 0 90 -190 0 -190 0 0 75 0 75
140 0 140 0 0 85 0 85 -140 0 -140 0 0 75 0 75 190 0 190 0 0 90 0 90 -295 0
-295 0 0 -415z"/>
<path d="M2550 7036 l0 -416 243 0 c272 0 321 8 383 62 57 50 78 101 79 188 0
86 -16 121 -71 159 l-34 23 31 35 c39 46 49 72 49 139 0 92 -37 155 -115 197
-38 21 -56 22 -302 25 l-263 3 0 -415z m450 234 c26 -26 27 -89 1 -121 -18
-23 -26 -24 -128 -24 l-108 0 -3 83 -3 82 111 0 c97 0 112 -2 130 -20z m7
-319 c32 -16 47 -73 33 -116 -6 -19 -20 -40 -30 -45 -10 -6 -71 -10 -134 -10
l-116 0 0 88 c0 49 3 92 8 96 10 12 215 1 239 -13z"/>
<path d="M4060 7035 l0 -415 105 0 105 0 0 415 0 415 -105 0 -105 0 0 -415z"/>
<path d="M4360 7360 l0 -90 115 0 115 0 0 -325 0 -325 105 0 105 0 0 325 0
325 120 0 120 0 0 90 0 90 -340 0 -340 0 0 -90z"/>
<path d="M5120 7035 l0 -415 295 0 295 0 0 90 0 90 -190 0 -190 0 0 75 0 75
140 0 140 0 0 85 0 85 -140 0 -140 0 0 75 0 75 190 0 190 0 0 90 0 90 -295 0
-295 0 0 -415z"/>
<path d="M5104 6005 c-203 -44 -324 -201 -324 -420 0 -202 108 -357 289 -412
84 -26 255 -24 346 4 113 36 115 38 115 149 0 52 -2 94 -3 94 -2 0 -31 -13
-64 -30 -75 -38 -190 -55 -268 -41 -135 25 -197 99 -198 236 0 82 16 127 63
172 54 52 103 66 222 61 103 -4 116 -7 231 -66 4 -2 7 41 7 96 l0 99 -57 26
c-106 47 -238 59 -359 32z"/>
<path d="M620 5910 l0 -90 115 0 115 0 0 -325 0 -325 105 0 105 0 0 325 0 325
120 0 120 0 0 90 0 90 -340 0 -340 0 0 -90z"/>
<path d="M1390 5586 l0 -416 105 0 105 0 0 130 0 130 58 0 58 0 64 -130 64
-130 108 0 c59 0 108 3 108 6 0 4 -32 68 -71 143 l-70 136 23 15 c37 24 83 75
104 117 29 57 27 213 -3 268 -28 53 -68 89 -128 117 -47 22 -64 23 -287 26
l-238 3 0 -415z m419 219 c35 -17 41 -32 41 -94 0 -38 -5 -52 -26 -72 -23 -21
-36 -24 -125 -27 l-99 -4 0 106 0 106 90 0 c60 0 101 -5 119 -15z"/>
<path d="M2335 5633 c-81 -202 -156 -389 -166 -415 l-19 -48 109 0 108 0 33
85 33 85 153 0 152 0 34 -85 33 -85 108 0 c59 0 107 1 107 3 0 1 -74 187 -164
412 l-164 410 -105 3 -105 3 -147 -368z m304 4 c22 -65 41 -123 41 -128 0 -5
-43 -9 -95 -9 -52 0 -95 4 -95 9 0 24 93 261 100 254 4 -4 26 -61 49 -126z"/>
<path d="M3120 5585 l0 -415 105 0 105 0 0 165 0 165 140 0 140 0 0 85 0 85
-140 0 -140 0 0 75 0 75 190 0 190 0 0 90 0 90 -295 0 -295 0 0 -415z"/>
<path d="M3790 5585 l0 -415 105 0 105 0 0 165 0 165 140 0 140 0 0 85 0 85
-140 0 -140 0 0 75 0 75 190 0 190 0 0 90 0 90 -295 0 -295 0 0 -415z"/>
<path d="M4460 5585 l0 -415 105 0 105 0 0 415 0 415 -105 0 -105 0 0 -415z"/>
<path d="M6870 5654 c-109 -23 -191 -51 -285 -97 -91 -45 -229 -141 -275 -192
l-25 -27 390 -384 390 -384 555 0 556 0 -8 95 c-9 116 -28 200 -68 302 -134
349 -440 608 -805 684 -109 23 -327 24 -425 3z m398 -19 c339 -69 606 -266
760 -563 73 -139 122 -317 122 -438 l0 -44 -536 0 -536 0 -379 371 c-209 205
-379 375 -379 380 0 4 36 36 80 71 135 109 318 193 485 223 99 19 290 18 383
0z"/>
<path d="M6201 5238 c-161 -195 -246 -414 -258 -664 -26 -541 330 -1014 864
-1146 128 -32 370 -32 498 0 211 53 378 141 521 274 195 183 328 461 350 734
10 122 -10 107 -24 -18 -16 -146 -45 -247 -107 -374 -87 -180 -207 -323 -357
-425 -52 -36 -58 -37 -67 -22 -9 16 -10 16 -11 -4 0 -28 -25 -44 -134 -88
-378 -153 -798 -91 -1109 163 -87 70 -177 170 -177 194 0 11 -4 17 -9 13 -13
-7 -94 125 -131 215 -74 178 -103 382 -81 555 29 225 102 393 245 572 36 45
66 84 66 87 0 20 -27 -3 -79 -66z"/>
<path d="M8865 4100 c-82 -10 -151 -19 -152 -19 -2 -1 -3 -8 -3 -16 0 -18 35
-18 235 -2 133 11 140 13 143 35 4 27 -7 27 -223 2z"/>
<path d="M8220 3991 c-100 -20 -107 -33 -224 -412 -103 -333 -103 -334 -80
-337 13 -2 24 -10 24 -19 0 -21 -42 -166 -51 -177 -5 -5 -34 -13 -65 -17 -39
-5 -70 -17 -100 -38 l-42 -31 -176 0 -176 0 0 -708 0 -708 -75 -74 -75 -74 0
622 0 622 -540 0 -540 0 0 -737 0 -737 -42 -43 c-23 -24 -45 -43 -48 -43 -3 0
-66 133 -140 295 l-135 295 -290 0 -291 0 -36 -173 c-225 -1051 -302 -1392
-328 -1454 -9 -22 -16 -23 -127 -25 -65 -1 895 -5 2132 -9 1238 -3 2645 -4
3128 -1 l877 5 0 110 0 109 -37 -6 c-83 -15 -84 -16 -53 -76 22 -44 25 -60 10
-60 -6 0 -34 -16 -63 -35 l-52 -35 -197 0 -198 0 0 74 0 74 -52 12 c-29 6 -62
14 -72 17 -17 5 -19 1 -13 -44 l6 -50 -65 -42 -65 -41 -145 0 c-130 0 -144 2
-144 18 -1 16 -1 16 -11 -1 -6 -9 -14 -15 -20 -12 -11 7 -13 2065 -1 2064 4 0
34 -32 66 -70 34 -40 70 -72 85 -76 20 -5 47 5 113 40 48 26 89 47 92 47 4 0
6 -81 6 -180 l0 -180 255 0 255 0 0 23 c0 12 -13 162 -29 333 -29 309 -37 352
-75 383 -9 7 -77 16 -177 22 -185 12 -180 13 -351 -72 l-97 -49 -75 88 -76 87
0 230 0 230 430 430 c236 236 431 427 433 425 3 -3 12 -20 22 -39 l17 -35 44
109 c24 60 44 110 44 111 0 1 -39 -13 -87 -33 -49 -19 -99 -40 -113 -45 -25
-10 -25 -10 13 -25 20 -8 37 -18 37 -22 0 -3 -189 -195 -420 -426 l-420 -420
0 388 0 387 -342 -1 c-189 -1 -356 -5 -373 -9 -16 -4 133 -8 333 -9 l362 -1 0
-75 0 -75 -516 0 -516 0 4 75 c2 55 0 75 -9 75 -10 0 -13 -103 -13 -483 l0
-483 -76 -74 -76 -75 5 268 5 267 -60 0 -59 0 3 -57 3 -58 -53 -6 c-38 -5 -65
-16 -92 -38 -34 -27 -47 -31 -98 -31 -32 0 -61 2 -64 5 -9 9 86 245 98 245 6
0 35 65 63 145 l53 145 -11 119 c-21 230 -10 282 78 349 42 31 42 32 14 31
-15 -1 -44 -4 -63 -8z m1380 -734 l0 -302 -160 -160 -160 -160 -215 215 -215
215 -140 -140 -140 -140 0 388 0 387 515 0 515 0 0 -303z m-533 -439 l213
-213 160 160 160 160 0 -307 c0 -296 3 -344 20 -333 5 3 31 -24 59 -59 54 -69
86 -85 136 -66 42 16 40 7 -7 -30 l-41 -34 -70 77 -69 77 -39 -31 -39 -31 25
-32 25 -33 0 -1052 0 -1051 -512 2 -513 3 -3 1365 -2 1365 137 137 c76 76 140
138 143 138 3 0 100 -96 217 -212z m-687 62 l0 -60 -515 0 -515 0 0 60 0 60
515 0 515 0 0 -60z m0 -183 l0 -102 -515 -515 -515 -515 0 618 0 617 515 0
515 0 0 -103z m168 -1324 l-3 -1348 -70 0 -70 0 -3 1280 -2 1279 67 68 c37 37
71 68 75 68 5 0 7 -606 6 -1347z m-1388 1182 l0 -65 -515 0 -515 0 0 65 0 65
515 0 515 0 0 -65z m1215 -2523 c-3 -9 -116 -12 -515 -12 l-510 0 0 757 0 758
513 513 512 512 3 -1257 c1 -692 0 -1264 -3 -1271z m-1217 1888 l2 -545 -150
-150 -150 -150 -213 213 -212 212 -153 -152 -152 -153 0 638 0 637 513 -2 512
-3 3 -545z m170 -1157 l-3 -738 -70 0 -70 0 -3 670 -2 669 67 68 c37 37 71 68
75 68 5 0 7 -332 6 -737z m-325 425 c78 78 146 142 150 142 4 0 6 -294 5 -652
l-3 -653 -512 -3 -513 -2 0 572 0 573 152 152 153 153 212 -212 213 -213 143
143z m-1384 -106 c83 -128 151 -236 151 -240 0 -10 -358 -367 -363 -362 -2 3
-14 36 -27 73 -12 38 -24 66 -26 64 -2 -2 7 -37 21 -78 l25 -73 -185 -186
-185 -186 -60 6 c-32 3 -61 8 -64 11 -3 2 7 37 21 77 l26 72 56 0 57 0 89 258
c49 141 94 271 101 287 l13 30 12 -33 c6 -18 13 -31 16 -29 2 3 -3 21 -11 41
-15 36 -14 39 59 249 106 306 96 281 110 265 7 -7 80 -118 164 -246z m481
-467 l0 -515 -42 0 c-24 0 -49 4 -56 9 -11 6 -7 79 22 393 20 211 36 401 36
421 0 20 -10 57 -22 82 l-22 45 39 40 c21 22 40 40 42 40 2 0 3 -232 3 -515z
m-265 -355 l46 0 -3 -117 -3 -118 -165 -3 c-146 -2 -166 -1 -177 15 -12 16
-13 16 -13 0 0 -15 -18 -17 -193 -17 -192 0 -194 0 -214 24 -12 13 -29 29 -40
35 -16 9 26 54 347 376 l365 365 3 -280 2 -280 45 0z"/>
<path d="M683 3325 c-18 -8 -42 -29 -53 -47 -20 -32 -20 -46 -18 -520 l3 -488
33 -32 32 -33 1843 -3 c1736 -3 1844 -2 1875 15 63 32 62 23 62 558 l0 485
-34 38 -34 37 -1839 2 c-1562 2 -1843 0 -1870 -12z m647 -425 l0 -30 -60 0
-60 0 0 -35 0 -35 51 0 c49 0 50 -1 47 -27 -3 -26 -7 -28 -50 -31 l-48 -3 0
-40 0 -39 65 0 65 0 0 -30 0 -30 -110 0 -110 0 0 158 c0 87 3 162 7 165 3 4
51 7 105 7 l98 0 0 -30z m177 -68 l63 -93 0 96 0 95 40 0 40 0 0 -165 0 -165
-34 0 c-33 0 -38 5 -97 95 -33 52 -62 95 -63 95 -1 0 0 -43 2 -95 l4 -95 -41
0 -41 0 0 166 0 165 32 -3 c29 -3 40 -14 95 -96z m398 68 c33 -31 35 -93 3
-127 -20 -21 -20 -24 -5 -41 9 -10 28 -43 41 -75 l26 -57 -44 0 c-43 0 -44 1
-66 53 -23 53 -47 87 -62 87 -4 0 -8 -31 -8 -70 l0 -70 -40 0 -40 0 0 166 0
167 85 -5 c72 -4 89 -8 110 -28z m334 -4 c35 -34 56 -109 46 -163 -17 -92 -65
-133 -156 -133 -92 0 -139 52 -139 154 0 63 12 101 43 135 32 34 55 41 120 38
47 -3 62 -8 86 -31z m179 -103 l3 -133 54 0 c54 0 55 0 55 -30 l0 -30 -100 0
-100 0 0 158 c0 87 3 162 7 166 4 4 23 6 43 4 l35 -3 3 -132z m220 0 l3 -133
54 0 c54 0 55 0 55 -30 l0 -30 -100 0 -100 0 0 158 c0 87 3 162 7 166 4 4 23
6 43 4 l35 -3 3 -132z m393 36 l66 -100 -5 101 -5 100 42 0 41 0 0 -165 0
-165 -34 0 c-32 0 -38 6 -93 91 l-58 91 -3 -91 -3 -91 -39 0 -40 0 0 165 0
165 33 0 c30 0 37 -8 98 -101z m420 85 c81 -42 92 -209 19 -279 -25 -24 -40
-30 -93 -33 -53 -3 -67 0 -97 20 -84 57 -77 234 12 288 40 24 116 27 159 4z
m178 -21 c6 -21 17 -65 25 -98 8 -33 15 -58 16 -55 1 3 13 46 28 95 l27 90 34
0 c34 0 35 -1 58 -75 12 -41 23 -84 23 -94 0 -38 15 -4 35 82 l20 87 44 3 c34
3 42 0 38 -10 -3 -8 -24 -83 -47 -166 l-42 -152 -34 0 c-33 0 -33 0 -59 88
-14 48 -28 94 -31 102 -3 8 -20 -31 -36 -87 l-31 -103 -33 0 c-22 0 -34 5 -38
18 -3 9 -21 76 -41 147 -20 72 -38 138 -41 148 -5 14 1 17 35 17 38 0 41 -2
50 -37z m351 -343 c0 -20 -5 -20 -1442 -18 -1365 3 -1443 4 -1446 21 -3 16 71
17 1442 17 1440 0 1446 0 1446 -20z"/>
<path d="M2090 2849 c-18 -34 -15 -147 5 -168 24 -27 52 -32 77 -12 28 24 36
111 15 164 -14 33 -20 37 -51 37 -25 0 -38 -6 -46 -21z"/>
<path d="M3326 2848 c-21 -29 -22 -135 -1 -165 23 -32 54 -35 81 -8 20 20 24
34 24 82 0 76 -16 107 -57 111 -23 2 -35 -3 -47 -20z"/>
<path d="M6285 3269 c-42 -24 -45 -36 -45 -209 0 -217 -6 -210 160 -210 134 0
128 3 187 -83 45 -65 70 -64 114 4 52 81 47 79 180 79 170 0 174 6 167 244 -5
198 33 180 -396 183 -241 2 -353 -1 -367 -8z m729 -31 c13 -18 16 -54 16 -180
0 -206 6 -198 -163 -198 l-123 0 -47 -65 c-26 -36 -51 -65 -56 -65 -5 0 -30
29 -56 65 l-46 65 -122 0 c-67 0 -127 4 -133 8 -28 18 -34 56 -34 201 0 138 2
153 20 171 19 19 33 20 374 20 l355 0 15 -22z"/>
<path d="M5655 2878 c-83 -20 -88 -23 -97 -53 -4 -16 -5 -67 -2 -113 7 -86 16
-102 18 -30 1 44 20 63 29 28 8 -32 27 -23 27 14 0 46 21 62 61 46 32 -14 76
-16 109 -5 32 10 25 52 -14 91 -36 36 -56 40 -131 22z"/>
<path d="M10109 2747 c-20 -43 -6 -57 56 -57 l55 0 0 -47 c0 -44 1 -45 18 -30
36 32 56 11 32 -33 -10 -19 -4 -50 10 -50 14 0 31 65 33 124 3 79 -1 82 -160
112 -28 6 -34 3 -44 -19z"/>
<path d="M610 1500 c0 -7 650 -10 1930 -10 1280 0 1930 3 1930 10 0 7 -650 10
-1930 10 -1280 0 -1930 -3 -1930 -10z"/>
</g>
</svg>
